<svg xmlns="http://www.w3.org/2000/svg" width="1333.333" height="1333.333" preserveAspectRatio="xMidYMid meet" version="1.0" viewBox="0 0 1000 1000"><g fill="#000" stroke="none"><path d="M3900 9253 c-409 -15 -984 -85 -1307 -159 l-73 -16 0 -3979 0 -3979 67 -31 c309 -141 627 -239 953 -293 244 -40 367 -50 640 -50 276 1 448 16 690 60 1240 229 2220 1049 2520 2110 103 365 118 786 40 1166 -187 908 -898 1697 -1875 2081 -186 73 -494 167 -549 167 -40 0 -358 -597 -476 -895 -68 -173 -150 -410 -150 -435 0 -11 25 -19 110 -33 738 -120 1296 -676 1327 -1322 18 -370 -120 -706 -405 -988 -289 -287 -681 -454 -1129 -482 l-103 -6 0 3546 0 3545 -102 -2 c-57 -1 -137 -3 -178 -5z" transform="translate(0.000000,1000.000000) scale(0.100000,-0.100000)"/></g></svg>